<svg width="848" height="1677" viewBox="0 0 848 1677" fill="none" xmlns="http://www.w3.org/2000/svg">
<path d="M1222.91 522.096C1319.95 685.032 1371.82 849.72 1321.62 954.84C1271.43 1059.96 1119.18 1103.76 983.653 1163.33C848.13 1222.9 731.011 1299.98 625.604 1273.7C520.197 1249.18 426.502 1123.03 406.424 989.88C384.674 858.48 434.868 718.32 520.197 558.888C603.853 401.208 722.645 222.504 853.149 211.992C983.653 203.232 1125.87 360.912 1222.91 522.096Z" fill="url(#paint0_linear_8_7)"/>
<path d="M1183.44 573.096C1277.72 736.032 1328.12 900.72 1279.35 1005.84C1230.58 1110.96 1082.65 1154.76 950.976 1214.33C819.303 1273.9 705.511 1350.98 603.098 1324.7C500.685 1300.18 409.651 1174.03 390.144 1040.88C369.011 909.48 417.779 769.32 500.685 609.888C581.965 452.208 697.383 273.504 824.18 262.992C950.976 254.232 1089.15 411.912 1183.44 573.096Z" fill="url(#paint1_linear_8_7)"/>
<defs>
<linearGradient id="paint0_linear_8_7" x1="401.357" y1="1279" x2="1460.11" y2="346.837" gradientUnits="userSpaceOnUse">
<stop offset="1" stop-color="#A3BEFB"/>
</linearGradient>
<linearGradient id="paint1_linear_8_7" x1="385.221" y1="1330" x2="1439.69" y2="427.982" gradientUnits="userSpaceOnUse">
<stop offset="1" stop-color="#B9CFFD"/>
</linearGradient>
</defs>
</svg>
